<?xml version="1.0" encoding="utf-8"?>
<!-- Generator: Adobe Illustrator 16.0.0, SVG Export Plug-In . SVG Version: 6.00 Build 0)  -->
<!DOCTYPE svg PUBLIC "-//W3C//DTD SVG 1.1//EN" "http://www.w3.org/Graphics/SVG/1.1/DTD/svg11.dtd">
<svg version="1.1" id="Layer_1" xmlns="http://www.w3.org/2000/svg" xmlns:xlink="http://www.w3.org/1999/xlink" x="0px" y="0px"
	 width="300px" height="300px" viewBox="0 0 300 300" enable-background="new 0 0 300 300" xml:space="preserve">
<g>
	<path d="M287.991,131.75L158.449,20.348c-4.861-4.175-12.036-4.175-16.897,0L12.009,131.75c-5.424,4.664-6.042,12.846-1.379,18.27
		c4.669,5.421,12.852,6.04,18.27,1.376L150,47.252l121.1,104.145c2.443,2.103,5.455,3.132,8.436,3.132
		c3.643,0,7.273-1.527,9.834-4.509C294.034,144.597,293.415,136.414,287.991,131.75z"/>
	<polygon points="196.708,163.488 103.292,163.488 88.64,204.522 211.36,204.522 	"/>
	<path d="M217.477,230.449h-32.396c-1.49,0-2.696,1.194-2.696,2.697v9.664c0,1.49,1.206,2.706,2.696,2.706h32.396
		c1.484,0,2.697-1.215,2.697-2.706v-9.664C220.174,231.643,218.961,230.449,217.477,230.449z"/>
	<path d="M131.111,233.937c-1.497,0-2.703,1.197-2.703,2.688v2.7c0,1.491,1.206,2.706,2.703,2.706h37.777
		c1.497,0,2.703-1.215,2.703-2.706v-2.7c0-1.491-1.206-2.688-2.703-2.688H131.111z"/>
	<path d="M117.616,242.81v-9.664c0-1.503-1.206-2.697-2.697-2.697H82.523c-1.484,0-2.697,1.194-2.697,2.697v9.664
		c0,1.49,1.212,2.706,2.697,2.706h32.396C116.41,245.515,117.616,244.3,117.616,242.81z"/>
	<path d="M154.23,65.421c-2.437-2.094-6.024-2.094-8.461,0l-97.622,84.201c-1.429,1.231-2.239,3.021-2.239,4.908v121.774
		c0,3.581,2.895,6.479,6.47,6.479h14.497v-20.8c-2.684-3.729-4.317-8.263-4.317-13.205v-21.591c0-8.285,4.515-15.472,11.17-19.424
		l18.901-52.93c0.916-2.579,3.358-4.298,6.099-4.298h102.545c2.74,0,5.183,1.719,6.098,4.298l18.901,52.93
		c6.655,3.952,11.17,11.139,11.17,19.424v21.591c0,4.942-1.633,9.475-4.317,13.205v20.8h14.497c3.575,0,6.47-2.897,6.47-6.479
		V154.529c0-1.886-0.811-3.677-2.239-4.908L154.23,65.421z"/>
	<rect x="98.183" y="271.445" width="103.634" height="11.337"/>
</g>
</svg>
